<svg width="32" height="32" viewBox="0 0 32 32" fill="none" xmlns="http://www.w3.org/2000/svg">
  <!-- Background circle -->
  <circle cx="16" cy="16" r="15" fill="#8B4513" stroke="#D2B48C" stroke-width="2"/>
  
  <!-- Coffee cup icon -->
  <path d="M8 12h12v8c0 2-1 3-3 3h-6c-2 0-3-1-3-3v-8z" fill="#D2B48C"/>
  <path d="M20 12v8c0 2-1 3-3 3h-6c-2 0-3-1-3-3v-8h12z" fill="#8B4513"/>
  
  <!-- Coffee handle -->
  <path d="M20 14c0 1-1 2-2 2v4c0 1-1 2-2 2s-2-1-2-2v-4c-1 0-2-1-2-2" stroke="#D2B48C" stroke-width="1.5" fill="none"/>
  
  <!-- Steam lines -->
  <path d="M12 8v2M14 7v2M16 8v2" stroke="#D2B48C" stroke-width="1" stroke-linecap="round"/>
</svg>
